#!OML:ASF H:\Terrain\Patient Classification 1\Animal1\Tuesday\Animal1.ASF
:FULLY-SPECIFIED
:DEGREES
2351
root 7.91137 16.1516 0.548518 -319.928 -2.9153 -3.15545
lowerback 34.3701 4.10859 -21.0365
upperback 10.5425 -0.318491 13.1796
thorax -5.87772 -0.653138 27.916
lowerneck -15.5344 -1.06246 -19.9219
upperneck -31.0274 -1.14696 -4.33743
head -7.75535 1.87237 1.82735
rclavicle 5.08889e-014 -4.49253e-014
rhumerus -7.10317 37.8595 -28.7185
rradius 98.0305
rwrist -50.9525
rhand -23.5665 36.1416
rfingers 7.12502
rthumb 2.89603 6.18155
lclavicle 5.08889e-014 -4.49253e-014
lhumerus 49.763 -38.2908 76.2193
lradius 39.541
lwrist -36.1482
lhand 7.58934 42.0084
lfingers 7.12502
lthumb 32.8365 69.0429
rfemur -66.2747 3.42162 -0.144023
rtibia 28.4903
rfoot 17.2589 -13.1954
rtoes -25.4689
lfemur -58.6284 12.4332 0.874435
ltibia 41.2354
lfoot 3.57191 17.1811
ltoes -3.46204
2352
root 7.81399 16.1369 0.573602 -319.745 -3.43131 -3.15514
lowerback 34.4944 4.25691 -20.689
upperback 10.7301 -0.0177484 13.3535
thorax -5.91405 -0.519599 27.8008
lowerneck -15.0246 -1.31224 -20.1084
upperneck -30.7138 -1.59394 -4.34519
head -7.68772 1.64468 1.86572
rclavicle 7.95139e-015 -5.88403e-014
rhumerus -6.80122 36.4644 -27.6962
rradius 97.782
rwrist -51.083
rhand -23.6234 34.1115
rfingers 7.12502
rthumb 2.84104 4.15069
lclavicle 7.95139e-015 -5.88403e-014
lhumerus 47.427 -38.068 79.9434
lradius 40.0061
lwrist -36.6523
lhand 6.16294 41.8321
lfingers 7.12502
lthumb 31.4786 69.1412
rfemur -66.7855 3.16745 0.779162
rtibia 28.9308
rfoot 16.1196 -12.946
rtoes -25.8579
lfemur -58.2708 12.318 1.464
ltibia 41.2233
lfoot 3.95338 17.4805
ltoes -3.6769
2353
root 7.7191 16.122 0.594764 -319.625 -4.04615 -3.04187
lowerback 34.7101 4.36017 -20.4959
upperback 10.8681 0.142658 13.4254
thorax -5.94353 -0.454598 27.694
lowerneck -14.502 -1.4028 -19.9906
upperneck -30.4008 -1.87665 -4.47258
head -7.62596 1.47222 1.81441
rclavicle -4.6118e-014 1.15295e-014
rhumerus -6.27784 35.2738 -27.2767
rradius 97.2758
rwrist -50.9884
rhand -23.6296 33.7774
rfingers 7.12502
rthumb 2.83512 3.81655
lclavicle -4.6118e-014 1.15295e-014
lhumerus 44.8638 -37.489 83.5037
lradius 40.57
lwrist -36.7433
lhand 5.18515 41.8698
lfingers 7.12502
lthumb 30.5466 69.3567
rfemur -67.2316 2.7352 1.81841
rtibia 29.2802
rfoot 15.0495 -11.9261
rtoes -27.0979
lfemur -57.8311 12.1164 1.90895
ltibia 41.1625
lfoot 4.10884 17.7577
ltoes -5.13062
2354
root 7.62433 16.097 0.621114 -319.403 -4.88893 -2.85693
lowerback 34.6822 4.41264 -20.4811
upperback 11.0342 0.201032 13.3507
thorax -5.76907 -0.474841 27.5259
lowerneck -14.3783 -1.49623 -19.949
upperneck -29.8412 -1.96465 -4.38108
head -7.4252 1.3622 1.84358
rclavicle 8.26944e-014 -1.53462e-013
rhumerus -5.54819 34.3478 -26.9749
rradius 96.6016
rwrist -50.8934
rhand -24.1235 35.6464
rfingers 7.12502
rthumb 2.35813 5.67969
lclavicle 8.26944e-014 -1.53462e-013
lhumerus 42.5134 -36.6763 86.5082
lradius 41.2629
lwrist -36.1517
lhand 4.19132 42.0278
lfingers 7.12502
lthumb 29.5983 69.6871
rfemur -67.9 2.21378 2.85827
rtibia 29.5554
rfoot 13.9173 -10.3476
rtoes -28.2
lfemur -57.4085 12.0295 2.11066
ltibia 41.0685
lfoot 4.277 18.2581
ltoes -5.6094
2355
root 7.53161 16.0769 0.653672 -319.171 -5.58182 -2.83281
lowerback 34.7019 4.37422 -20.3027
upperback 11.1477 0.205799 13.3932
thorax -5.66277 -0.504756 27.4616
lowerneck -14.442 -1.54518 -20.2267
upperneck -28.997 -1.85521 -4.20805
head -7.11846 1.35168 1.942
rclavicle -5.40694e-014 2.0276e-013
rhumerus -4.64246 33.8811 -26.3275
rradius 95.9885
rwrist -50.4843
rhand -24.4535 38.3094
rfingers 7.12502
rthumb 2.03942 8.33938
lclavicle -5.40694e-014 2.0276e-013
lhumerus 40.4459 -35.7194 89.0387
lradius 42.0262
lwrist -34.9678
lhand 2.85053 42.7201
lfingers 7.12502
lthumb 28.3177 70.5991
rfemur -68.5265 1.81058 4.02278
rtibia 29.8374
rfoot 12.8284 -9.04135
rtoes -28.7392
lfemur -56.8943 11.8912 2.55444
ltibia 40.9184
lfoot 4.14493 19.0091
ltoes -2.93932
2356
root 7.442 16.065 0.680261 -319.06 -6.09538 -2.82544
lowerback 34.955 4.31095 -20.0365
upperback 11.2061 0.185434 13.5565
thorax -5.70869 -0.519873 27.54
lowerneck -14.2053 -1.4989 -20.7059
upperneck -28.3014 -1.66834 -3.94355
head -6.92195 1.41358 2.10241
rclavicle 3.65764e-014 4.73108e-014
rhumerus -3.59606 33.4763 -25.709
rradius 95.2619
rwrist -49.8288
rhand -24.3264 38.7513
rfingers 7.12502
rthumb 2.16214 8.78254
lclavicle 3.65764e-014 4.73108e-014
lhumerus 38.6121 -34.649 91.2862
lradius 42.6385
lwrist -33.5911
lhand 1.41832 43.6723
lfingers 7.12502
lthumb 26.9482 71.7707
rfemur -68.9265 1.50702 5.0687
rtibia 30.2061
rfoot 11.4964 -8.62233
rtoes -28.4988
lfemur -56.2928 11.5793 3.1108
ltibia 40.7138
lfoot 3.69718 19.6397
ltoes -1.01143
2357
root 7.35253 16.0491 0.694228 -319.135 -6.79754 -2.43866
lowerback 35.2816 4.42345 -20.0432
upperback 11.3782 0.260438 13.5399
thorax -5.67203 -0.515146 27.4636
lowerneck -14.0799 -1.48254 -20.7071
upperneck -27.7259 -1.53323 -3.60694
head -6.73085 1.40626 2.21554
rclavicle 7.95139e-015 -1.22054e-013
rhumerus -2.76158 32.5366 -25.5841
rradius 94.367
rwrist -48.9081
rhand -24.3988 36.6417
rfingers 7.12502
rthumb 2.09218 6.67219
lclavicle 7.95139e-015 -1.22054e-013
lhumerus 37.3827 -34.0894 92.7035
lradius 43.2638
lwrist -31.9349
lhand -0.320878 44.5342
lfingers 7.12502
lthumb 25.283 72.8787
rfemur -69.2507 1.18238 5.43969
rtibia 30.6978
rfoot 10.0262 -8.53578
rtoes -27.7491
lfemur -55.6471 11.1558 3.14122
ltibia 40.4504
lfoot 3.22884 20.1539
ltoes 0.217643
2358
root 7.26266 16.0266 0.711054 -319.216 -7.64823 -2.08032
lowerback 35.4838 4.5974 -20.2505
upperback 11.5809 0.36461 13.5218
thorax -5.56111 -0.512865 27.506
lowerneck -13.9302 -1.41529 -20.7054
upperneck -27.1811 -1.33675 -3.25608
head -6.56079 1.43323 2.33153
rclavicle 3.18055e-014 -1.63003e-014
rhumerus -0.936949 31.6668 -23.3759
rradius 93.9706
rwrist -49.7442
rhand -24.0385 34.9921
rfingers 7.12502
rthumb 2.44017 5.02632
lclavicle 3.18055e-014 -1.63003e-014
lhumerus 36.2062 -33.436 94.0032
lradius 44.0042
lwrist -30.5672
lhand -1.62195 45.3847
lfingers 7.12502
lthumb 24.0359 73.8996
rfemur -69.7097 1.01682 5.60219
rtibia 31.3862
rfoot 8.70639 -8.0191
rtoes -27.2581
lfemur -54.8569 10.7809 3.1347
ltibia 40.0994
lfoot 2.8405 20.6698
ltoes 3.36279
2359
root 7.17544 15.9999 0.731459 -319.164 -8.46619 -2.13179
lowerback 35.4877 4.91911 -20.1803
upperback 11.8361 0.791427 13.6233
thorax -5.52078 -0.338801 27.3924
lowerneck -13.8417 -1.37825 -20.3416
upperneck -26.5694 -1.26075 -3.22889
head -6.34879 1.37837 2.28347
rclavicle -6.36111e-015 -5.64548e-014
rhumerus -0.456191 30.8582 -23.1336
rradius 93.251
rwrist -49.1427
rhand -23.5762 35.2431
rfingers 7.12502
rthumb 2.88666 5.28285
lclavicle -6.36111e-015 -5.64548e-014
lhumerus 35.1924 -33.0989 95.3557
lradius 44.7304
lwrist -29.633
lhand -2.29082 46.0684
lfingers 7.12502
lthumb 23.3944 74.6665
rfemur -70.3022 1.06094 6.16124
rtibia 32.1446
rfoot 7.18116 -7.50917
rtoes -26.2725
lfemur -53.9901 10.7038 3.41149
ltibia 39.7261
lfoot 2.87841 21.1694
ltoes 4.09866
2360
root 7.1059 15.9734 0.751895 -319.212 -8.68495 -1.73718
lowerback 35.8314 4.82863 -19.5885
upperback 11.993 0.835515 13.7834
thorax -5.52966 -0.33167 27.2038
lowerneck -13.8516 -1.42612 -20.2792
upperneck -25.9547 -1.20719 -2.95911
head -6.12583 1.32645 2.36134
rclavicle 9.06458e-014 -8.82604e-014
rhumerus -0.0983445 30.2882 -23.6446
rradius 92.3299
rwrist -47.5746
rhand -24.0538 35.7439
rfingers 7.12502
rthumb 2.42538 5.77792
lclavicle 9.06458e-014 -8.82604e-014
lhumerus 34.2437 -32.5166 96.7347
lradius 45.4024
lwrist -28.9655
lhand -3.10045 46.0928
lfingers 7.12502
lthumb 22.6176 74.7877
rfemur -70.8882 0.430421 6.7283
rtibia 33.3686
rfoot 5.77169 -7.25059
rtoes -27.1532
lfemur -53.4057 10.0443 3.46423
ltibia 39.1006
lfoot 2.68782 21.8789
ltoes 5.93347
2361
root 7.03732 15.9613 0.782437 -319.62 -9.16823 -1.60237
lowerback 36.4457 4.92593 -19.1242
upperback 12.2403 1.01023 13.8823
thorax -5.58672 -0.272227 26.927
lowerneck -13.9737 -1.42591 -20.0672
upperneck -25.1918 -1.0467 -2.62304
head -5.83941 1.29951 2.43535
rclavicle 5.56597e-014 -5.12864e-014
rhumerus 0.451511 29.8846 -24.4758
rradius 91.187
rwrist -46.3017
rhand -24.7134 36.4843
rfingers 7.12502
rthumb 1.78835 6.51208
lclavicle 5.56597e-014 -5.12864e-014
lhumerus 33.2539 -31.7617 97.8178
lradius 46.0757
lwrist -28.6868
lhand -2.93965 46.1183
lfingers 7.12502
lthumb 22.7719 74.7943
rfemur -70.8886 -0.0298145 7.78475
rtibia 34.061
rfoot 4.89068 -6.29424
rtoes -29.4258
lfemur -52.3744 9.35102 3.77871
ltibia 38.8352
lfoot 1.27503 22.7635
ltoes 12.0555
2362
root 7.06646 15.9483 0.828349 -320.432 -5.34596 1.45937
lowerback 39.0037 2.04671 -14.8476
upperback 11.5717 -1.28327 14.0468
thorax -6.24374 -1.20623 25.4397
lowerneck -14.4893 -1.39598 -19.7758
upperneck -24.1778 -0.751701 -2.37954
head -5.4266 1.31924 2.46052
rclavicle 4.13472e-014 -6.38099e-014
rhumerus 1.23624 29.4116 -25.1554
rradius 89.9352
rwrist -45.7531
rhand -25.1017 37.321
rfingers 7.12502
rthumb 1.41333 7.34589
lclavicle 4.13472e-014 -6.38099e-014
lhumerus 32.3918 -31.0169 98.7223
lradius 46.7876
lwrist -28.7168
lhand -1.89975 46.7455
lfingers 7.12502
lthumb 23.7695 75.2953
rfemur -69.4032 -4.94243 7.81806
rtibia 35.014
rfoot 3.5921 -6.73317
rtoes -28.671
lfemur -54.2641 4.23875 3.63057
ltibia 38.4111
lfoot 2.18437 22.9258
ltoes 14.0996
2363
root 6.88786 15.9028 0.827583 -319.581 -9.68016 -1.01213
lowerback 36.6509 4.53682 -18.0074
upperback 12.5525 0.861589 13.9157
thorax -5.26295 -0.41549 26.2795
lowerneck -14.617 -1.26289 -19.4491
upperneck -23.4851 -0.448453 -2.11397
head -5.18063 1.37524 2.49288
rclavicle 4.69132e-014 -1.33186e-014
rhumerus 2.32489 29.0188 -24.7176
rradius 89.2749
rwrist -46.5171
rhand -25.3786 37.317
rfingers 7.12502
rthumb 1.14595 7.34036
lclavicle 4.69132e-014 -1.33186e-014
lhumerus 31.4395 -30.2874 99.4707
lradius 47.5043
lwrist -28.459
lhand -2.34132 46.8828
lfingers 7.12502
lthumb 23.346 75.487
rfemur -71.8222 -1.26891 9.24638
rtibia 35.3779
rfoot 2.07708 -4.93051
rtoes -25.1172
lfemur -51.7938 8.33802 4.03969
ltibia 38.4461
lfoot -0.407657 23.248
ltoes 22.4309
2364
root 6.8346 15.877 0.854266 -319.663 -9.56495 -0.73507
lowerback 36.9893 4.1364 -16.7833
upperback 12.6576 0.722888 13.9147
thorax -5.22521 -0.483271 25.5167
lowerneck -14.7126 -1.22086 -18.8987
upperneck -23.0194 -0.357612 -1.98036
head -4.99729 1.33044 2.45025
rclavicle -1.82882e-014 1.74931e-014
rhumerus 3.11666 28.4235 -24.6847
rradius 88.5368
rwrist -47.115
rhand -25.6097 36.702
rfingers 7.12502
rthumb 0.922748 6.72421
lclavicle -1.82882e-014 1.74931e-014
lhumerus 30.6922 -29.9027 99.8847
lradius 48.2066
lwrist -27.903
lhand -3.69981 46.6959
lfingers 7.12502
lthumb 22.0422 75.4597
rfemur -71.9468 -1.92903 9.84237
rtibia 35.8972
rfoot 0.598296 -5.01258
rtoes -21.1962
lfemur -51.6032 7.80405 4.14729
ltibia 38.3267
lfoot -2.23254 23.5606
ltoes 27.2958
